<svg width="83" height="23" viewBox="0 0 83 23" fill="none" xmlns="http://www.w3.org/2000/svg">
<path d="M13.0851 0.310591C12.3108 0.581585 12.0011 0.930007 12.0011 1.62685C12.0011 2.32369 11.8075 2.55597 11.1881 2.55597C10.5687 2.55597 10.4139 2.74954 10.53 3.60124C10.6074 4.25937 10.8784 4.68522 11.2268 4.68522C11.6914 4.68522 11.8463 5.34335 12.0011 7.5113C12.2334 10.7245 12.7754 11.4601 14.9821 11.4601C16.066 11.4601 16.2596 11.3052 16.2596 10.531C16.2596 9.87283 15.9886 9.52441 15.2918 9.36955C14.3239 9.13727 14.2852 8.98242 14.4014 6.89189C14.5175 4.84007 14.5949 4.68522 15.4079 4.80136C16.1435 4.9175 16.2596 4.76264 16.2596 3.75609C16.2596 2.74954 16.1047 2.55597 15.3305 2.55597C14.5175 2.55597 14.3626 2.32369 14.2465 1.27843C14.1304 0.0395966 14.0916 0.000883102 13.0851 0.310591Z" fill="white"/>
<path d="M70.7683 0.504157C70.3425 0.620297 70.0715 1.04615 70.0715 1.62685C70.0715 2.28498 69.8779 2.55597 69.2972 2.55597C68.7165 2.55597 68.5229 2.82697 68.5229 3.52381C68.5229 4.22065 68.7165 4.49165 69.2972 4.49165C69.9941 4.49165 70.0715 4.76264 70.0715 6.81446C70.0715 10.3761 70.8458 11.4214 73.4783 11.4601C74.1364 11.4601 74.33 11.2278 74.33 10.4922C74.33 9.7954 74.1364 9.52441 73.5944 9.52441C72.433 9.52441 71.9685 8.55657 72.0846 6.54347C72.2007 4.84007 72.2782 4.68522 73.2847 4.56908C74.0977 4.45294 74.33 4.22065 74.33 3.52381C74.33 2.82697 74.0977 2.59469 73.2847 2.47855C72.3943 2.40112 72.2007 2.16884 72.2007 1.27843C72.2394 0.233163 72.0846 0.155736 70.7683 0.504157Z" fill="white"/>
<path d="M3.40679 2.78829C2.78737 3.098 2.32281 3.17543 2.32281 2.94315C2.32281 2.74958 1.81954 2.55601 1.16141 2.55601H0V8.75017V14.9443H1.16141C2.32281 14.9443 2.32281 14.9056 2.32281 12.8151C2.32281 10.8794 2.70995 10.1439 3.29065 11.0343C3.7165 11.7698 5.76831 11.886 7.04586 11.3053C8.67183 10.531 9.67838 8.86631 9.67838 7.00807C9.67838 3.36899 6.38773 1.16232 3.40679 2.78829ZM6.65872 5.14982C7.70399 6.07894 7.58785 8.20818 6.42644 8.98245C5.1489 9.79544 3.91006 9.56316 2.98094 8.32433C1.23883 5.9628 4.45205 3.17543 6.65872 5.14982Z" fill="white"/>
<path d="M19.6664 2.78829C16.5693 4.45298 16.7242 9.71801 19.8987 11.2278C21.5247 12.0021 21.9505 12.0021 23.3829 11.2666C24.1959 10.8407 24.583 10.802 24.7766 11.1117C24.9314 11.344 25.4734 11.4601 25.9767 11.3827C26.8671 11.2666 26.9058 11.1891 27.022 6.89193L27.1381 2.55601H25.7444C24.8927 2.55601 24.4282 2.71087 24.583 2.94315C24.9314 3.52385 24.312 3.40771 23.4603 2.74958C22.4925 2.01402 21.0214 2.05274 19.6664 2.78829ZM23.77 5.11111C25.2024 6.54351 24.1959 9.52445 22.2989 9.52445C20.0923 9.52445 18.8921 6.85321 20.402 5.18853C21.1762 4.33684 22.9571 4.25941 23.77 5.11111Z" fill="white"/>
<path d="M31.5515 2.71087C29.8094 3.48514 28.9577 4.64655 28.7642 6.50479C28.377 10.3761 32.3645 12.7764 36.0036 10.8794C37.3586 10.1826 37.3973 9.98901 36.5069 9.33088C35.9649 8.94375 35.6164 8.94375 34.6099 9.40831C33.5646 9.91158 33.2549 9.91158 32.3258 9.48574C30.1191 8.40176 30.6998 7.97591 34.2228 7.97591H37.5521V6.50479C37.5521 4.68526 36.7004 3.40771 34.997 2.71087C33.4485 2.05274 33.0226 2.05274 31.5515 2.71087ZM34.7648 4.72397C36.1584 5.69181 35.7713 6.04023 33.2936 6.04023C32.0161 6.04023 30.9708 5.88538 30.9708 5.69181C30.9708 5.18854 32.5581 4.10456 33.2936 4.10456C33.6421 4.10456 34.3002 4.37555 34.7648 4.72397Z" fill="white"/>
<path d="M50.9084 2.71083C49.1663 3.4851 48.3146 4.6465 48.121 6.50475C47.8113 9.48569 49.747 11.4601 52.8828 11.4601C54.3152 11.4601 56.5218 10.531 56.5218 9.91154C56.5218 9.29213 54.9346 9.05984 53.8119 9.52441C52.5344 10.0664 50.5987 9.36955 50.4051 8.363C50.3277 7.85973 50.831 7.82101 53.6183 7.89844L56.909 8.01458V6.54347C56.909 4.72393 56.0573 3.40767 54.3539 2.71083C52.8053 2.0527 52.3795 2.0527 50.9084 2.71083ZM54.1216 4.72393C55.5153 5.69177 55.1282 6.04019 52.6505 6.04019C51.3729 6.04019 50.3277 5.88534 50.3277 5.69177C50.3277 5.18849 51.9149 4.10452 52.6505 4.10452C52.9989 4.10452 53.657 4.37551 54.1216 4.72393Z" fill="white"/>
<path d="M62.2513 2.71081C61.6319 3.02052 61.1673 3.13666 61.1673 2.90438C61.1673 2.71081 60.664 2.55596 60.0059 2.55596H58.8445V7.04673V11.4988L59.9285 11.3826C60.935 11.2665 60.9737 11.1891 61.1673 8.16942C61.3609 5.34333 61.4383 5.07234 62.4061 4.53035C63.3352 3.98836 63.4901 3.98836 64.2257 4.64649C64.9225 5.2659 65.0386 5.84661 65.0386 8.44041C65.0386 11.4214 65.0386 11.4601 66.0065 11.4601C66.9743 11.4601 66.9743 11.4214 66.9743 7.93714C66.9743 3.94964 66.7033 3.17537 64.9999 2.59467C63.4514 2.05268 63.5288 2.05268 62.2513 2.71081Z" fill="white"/>
<path d="M77.8143 2.43983C75.7624 3.2141 75.143 5.88534 76.7303 6.96932C77.1948 7.31774 77.8917 7.58873 78.2401 7.58873C78.5885 7.58873 79.2854 7.89844 79.7887 8.32429L80.6791 9.02113L79.7887 9.48569C79.0918 9.87283 78.7434 9.83412 77.9691 9.33084C77.2723 8.86628 76.8464 8.82756 76.2657 9.13727C75.8399 9.36955 75.4915 9.71797 75.4915 9.91154C75.4915 10.6471 77.311 11.4601 78.9757 11.4601C83.1567 11.4601 83.8536 7.00803 79.8274 6.19504C78.4724 5.92405 77.6207 5.11107 78.0078 4.49165C78.3175 3.94966 79.208 3.98837 80.1371 4.56908C80.7565 4.95621 81.0275 4.95621 81.492 4.45294C82.034 3.91095 82.034 3.79481 81.3759 3.2141C80.6016 2.47855 78.7047 2.09141 77.8143 2.43983Z" fill="white"/>
<path d="M38.52 3.2141C38.6748 3.60124 39.2943 5.26592 39.9137 6.9306C41.5009 11.1891 41.6558 11.4601 42.9333 11.4601C43.9786 11.4601 44.1335 11.2278 45.14 8.634C45.682 7.12417 46.4176 5.26592 46.6885 4.53036C47.4241 2.74954 47.3854 2.55597 46.1466 2.55597C45.1013 2.55597 44.9852 2.74954 44.1335 5.4982C43.6302 7.08546 43.0882 8.47914 42.972 8.55657C42.8172 8.634 42.2365 7.31774 41.6171 5.65306C40.6105 2.71083 40.4944 2.55597 39.4104 2.55597C38.4426 2.55597 38.2877 2.67212 38.52 3.2141Z" fill="white"/>
<path d="M4.64551 14.4798C4.64551 16.2606 6.6199 19.6674 8.43943 21.0223C14.2852 25.4357 22.8409 22.0676 24.1958 14.8282C24.4668 13.4345 24.4668 13.3958 23.2667 13.3958C22.2214 13.3958 22.0666 13.5119 22.0666 14.4798C22.0666 16.1832 20.0148 19.048 18.1178 20.0545C16.1047 21.0998 12.7753 21.1772 10.9945 20.2481C9.2137 19.319 7.39417 17.0736 6.89089 15.0992C6.50376 13.7055 6.27148 13.3958 5.53592 13.3958C4.80036 13.3958 4.64551 13.5894 4.64551 14.4798Z" fill="white"/>
</svg>
